<?xml version="1.0" encoding="UTF-8"?>
<svg width="164px" height="41px" viewBox="0 0 164 41" version="1.1" xmlns="http://www.w3.org/2000/svg" xmlns:xlink="http://www.w3.org/1999/xlink">
    <title>Group</title>
    <g id="WEB-DEV---FINAL-EXAM" stroke="none" stroke-width="1" fill="none" fill-rule="evenodd">
        <g id="Login" transform="translate(-611.000000, -95.000000)" fill="#FFFFFF">
            <g id="Group" transform="translate(611.000000, 95.000000)">
                <text id="change." font-family="CircularStd-Bold, Circular Std" font-size="32" font-weight="bold">
                    <tspan x="45" y="32">change.</tspan>
                </text>
                <path d="M8.78345533,3.01062553 L34.5811864,29.8157746 C35.9183853,31.2051919 35.8798225,33.4144647 34.4949485,34.7563683 L33.1739239,36.0364037 C31.7857218,37.3815323 29.5699195,37.3466142 28.2247909,35.9584121 C28.2220373,35.9555704 28.2192886,35.9527239 28.2165447,35.9498729 L2.41881359,9.14472381 C1.08161472,7.75530647 1.1201775,5.54603373 2.50505148,4.20413008 L3.82607609,2.92409465 C5.21427822,1.57896611 7.43008053,1.61388415 8.77520907,3.00208628 C8.77796265,3.00492803 8.78071141,3.00777445 8.78345533,3.01062553 Z" id="Rectangle"></path>
                <path d="M35.5251263,9.28845626 L8.80820707,36.0053755 C7.44137205,37.3722105 5.22529462,37.3722105 3.8584596,36.0053755 L2.47487373,34.6217896 C1.10803871,33.2549546 1.10803871,31.0388772 2.47487373,29.6720421 L29.1917929,2.95512293 C30.558628,1.58828791 32.7747054,1.58828791 34.1415404,2.95512293 L35.5251263,4.3387088 C36.8919613,5.70554382 36.8919613,7.92162124 35.5251263,9.28845626 Z" id="Rectangle"></path>
            </g>
        </g>
    </g>
</svg>